<svg width="50" height="54" viewBox="0 0 50 54" fill="none" xmlns="http://www.w3.org/2000/svg">
<path d="M15.1786 10.7143H34.8214C35.295 10.7143 35.7492 10.5261 36.0841 10.1913C36.419 9.85638 36.6071 9.40217 36.6071 8.92857V5.35714C36.6071 3.93634 36.0427 2.57373 35.0381 1.56907C34.0334 0.564411 32.6708 0 31.25 0H18.75C17.3292 0 15.9666 0.564411 14.9619 1.56907C13.9573 2.57373 13.3929 3.93634 13.3929 5.35714V8.92857C13.3929 9.40217 13.581 9.85638 13.9159 10.1913C14.2508 10.5261 14.705 10.7143 15.1786 10.7143ZM44.6429 4.46429H42.8571C42.7379 4.45639 42.6182 4.47408 42.5063 4.51616C42.3944 4.55824 42.2928 4.62374 42.2083 4.70828C42.1237 4.79281 42.0582 4.89444 42.0162 5.00634C41.9741 5.11825 41.9564 5.23785 41.9643 5.35714V8.92857C41.9643 10.823 41.2117 12.6398 39.8722 13.9793C38.5326 15.3189 36.7158 16.0714 34.8214 16.0714H15.1786C13.2842 16.0714 11.4674 15.3189 10.1278 13.9793C8.78826 12.6398 8.03571 10.823 8.03571 8.92857V5.35714C8.04361 5.23785 8.02592 5.11825 7.98384 5.00634C7.94176 4.89444 7.87626 4.79281 7.79172 4.70828C7.70719 4.62374 7.60556 4.55824 7.49366 4.51616C7.38175 4.47408 7.26215 4.45639 7.14286 4.46429H5.35714C3.93634 4.46429 2.57373 5.0287 1.56907 6.03336C0.564411 7.03802 0 8.40063 0 9.82143V48.2143C0 49.6351 0.564411 50.9977 1.56907 52.0024C2.57373 53.007 3.93634 53.5714 5.35714 53.5714H44.6429C46.0637 53.5714 47.4263 53.007 48.4309 52.0024C49.4356 50.9977 50 49.6351 50 48.2143V9.82143C50 8.40063 49.4356 7.03802 48.4309 6.03336C47.4263 5.0287 46.0637 4.46429 44.6429 4.46429ZM15.1786 42.8571C15.1786 43.3307 14.9904 43.785 14.6555 44.1198C14.3207 44.4547 13.8665 44.6429 13.3929 44.6429H11.6071C11.1335 44.6429 10.6793 44.4547 10.3445 44.1198C10.0096 43.785 9.82143 43.3307 9.82143 42.8571V41.0714C9.82143 40.5978 10.0096 40.1436 10.3445 39.8087C10.6793 39.4739 11.1335 39.2857 11.6071 39.2857H13.3929C13.8665 39.2857 14.3207 39.4739 14.6555 39.8087C14.9904 40.1436 15.1786 40.5978 15.1786 41.0714V42.8571ZM15.1786 33.9286C15.1786 34.4022 14.9904 34.8564 14.6555 35.1913C14.3207 35.5262 13.8665 35.7143 13.3929 35.7143H11.6071C11.1335 35.7143 10.6793 35.5262 10.3445 35.1913C10.0096 34.8564 9.82143 34.4022 9.82143 33.9286V32.1429C9.82143 31.6693 10.0096 31.2151 10.3445 30.8802C10.6793 30.5453 11.1335 30.3571 11.6071 30.3571H13.3929C13.8665 30.3571 14.3207 30.5453 14.6555 30.8802C14.9904 31.2151 15.1786 31.6693 15.1786 32.1429V33.9286ZM15.1786 25C15.1786 25.4736 14.9904 25.9278 14.6555 26.2627C14.3207 26.5976 13.8665 26.7857 13.3929 26.7857H11.6071C11.1335 26.7857 10.6793 26.5976 10.3445 26.2627C10.0096 25.9278 9.82143 25.4736 9.82143 25V23.2143C9.82143 22.7407 10.0096 22.2865 10.3445 21.9516C10.6793 21.6167 11.1335 21.4286 11.6071 21.4286H13.3929C13.8665 21.4286 14.3207 21.6167 14.6555 21.9516C14.9904 22.2865 15.1786 22.7407 15.1786 23.2143V25ZM40.1786 42.8571C40.1786 43.3307 39.9904 43.785 39.6555 44.1198C39.3207 44.4547 38.8665 44.6429 38.3929 44.6429H20.5357C20.0621 44.6429 19.6079 44.4547 19.273 44.1198C18.9381 43.785 18.75 43.3307 18.75 42.8571V41.0714C18.75 40.5978 18.9381 40.1436 19.273 39.8087C19.6079 39.4739 20.0621 39.2857 20.5357 39.2857H38.3929C38.8665 39.2857 39.3207 39.4739 39.6555 39.8087C39.9904 40.1436 40.1786 40.5978 40.1786 41.0714V42.8571ZM40.1786 33.9286C40.1786 34.4022 39.9904 34.8564 39.6555 35.1913C39.3207 35.5262 38.8665 35.7143 38.3929 35.7143H20.5357C20.0621 35.7143 19.6079 35.5262 19.273 35.1913C18.9381 34.8564 18.75 34.4022 18.75 33.9286V32.1429C18.75 31.6693 18.9381 31.2151 19.273 30.8802C19.6079 30.5453 20.0621 30.3571 20.5357 30.3571H38.3929C38.8665 30.3571 39.3207 30.5453 39.6555 30.8802C39.9904 31.2151 40.1786 31.6693 40.1786 32.1429V33.9286ZM40.1786 25C40.1786 25.4736 39.9904 25.9278 39.6555 26.2627C39.3207 26.5976 38.8665 26.7857 38.3929 26.7857H20.5357C20.0621 26.7857 19.6079 26.5976 19.273 26.2627C18.9381 25.9278 18.75 25.4736 18.75 25V23.2143C18.75 22.7407 18.9381 22.2865 19.273 21.9516C19.6079 21.6167 20.0621 21.4286 20.5357 21.4286H38.3929C38.8665 21.4286 39.3207 21.6167 39.6555 21.9516C39.9904 22.2865 40.1786 22.7407 40.1786 23.2143V25Z" fill="#68C4A1"/>
</svg>
