<svg width="60" height="60" viewBox="0 0 60 60" fill="none" xmlns="http://www.w3.org/2000/svg">
<path d="M27.9871 60H1.99908C0.899585 60 0 58.7671 0 57.2602V51.7808C0 50.2739 0.899585 49.041 1.99908 49.041H27.8871C28.9866 49.041 29.8862 50.2739 29.8862 51.7808V57.2602C29.9862 58.6301 29.1865 59.863 28.087 60H27.9871Z" fill="#68C4A1"/>
<path d="M27.9871 10.959H1.99908C0.899585 10.959 0 9.72607 0 8.21921V2.73974C0 1.23288 0.899585 0 1.99908 0H27.8871C28.9866 0 29.8862 1.23288 29.8862 2.73974V8.21921C29.9862 9.58908 29.1865 10.822 28.087 10.959H27.9871Z" fill="#68C4A1"/>
<path d="M41.4809 52.8774C42.1805 53.8363 43.38 53.8363 44.0797 52.8774L59.3726 32.0554C60.1722 31.0965 60.1722 29.4526 59.5725 28.4937C59.4726 28.3567 59.4726 28.3567 59.3726 28.2197L44.0797 7.26073C43.38 6.16483 42.1805 6.16483 41.4809 6.98675C41.3809 7.12374 41.3809 7.12374 41.281 7.26073L38.4822 11.0964C37.6826 12.0553 37.6826 13.6991 38.2823 14.658C38.3823 14.795 38.3823 14.795 38.4822 14.932L43.28 21.5074C43.7798 22.1923 43.7798 23.4252 43.28 24.1101C43.0801 24.3841 42.6803 24.6581 42.3804 24.6581H2.19898C1.09949 24.6581 0.0999527 25.8909 0.0999527 27.3978V32.8773C0.199907 34.3841 1.09949 35.48 2.19898 35.617H42.5803C43.28 35.617 43.8797 36.4389 43.8797 37.3978C43.8797 37.8088 43.7798 38.3568 43.4799 38.6307L38.6821 45.2061C37.8825 46.165 37.8825 47.8088 38.4822 48.7678C38.5822 48.9047 38.5822 48.9047 38.6821 49.0417L41.4809 52.8774Z" fill="#68C4A1"/>
</svg>
