<svg width="50" height="50" viewBox="0 0 50 50" fill="none" xmlns="http://www.w3.org/2000/svg">
<path d="M12.5 0L10.119 3.57143H3.57143C1.59286 3.57143 0 5.16428 0 7.14286V46.4286C0 48.4071 1.59286 50 3.57143 50H35.7143C37.6929 50 39.2857 48.4071 39.2857 46.4286V30.3571L35.7143 33.9286V46.4286H3.57143V7.14286H7.73817L5.35714 10.7143H33.9286L31.5475 7.14286H35.7143V8.92857L38.9707 5.67213C38.4121 4.43155 37.1677 3.57143 35.7143 3.57143H29.1667L26.7857 0H12.5ZM14.2857 3.57143H25L26.7857 7.14286H12.5L14.2857 3.57143Z" fill="#68C4A1"/>
<path fill-rule="evenodd" clip-rule="evenodd" d="M5.35715 26.7855L19.6429 41.0712L50 10.7141L46.4286 5.35693L19.6429 32.1426L10.7143 23.2141L5.35715 26.7855Z" fill="#68C4A1"/>
</svg>
