<svg width="50" height="50" viewBox="0 0 50 50" fill="none" xmlns="http://www.w3.org/2000/svg">
<path d="M34.375 4.6875H26.5625C22.1875 4.6875 18.75 8.125 18.75 12.5V28.125C18.75 28.5938 19.0625 29.2188 19.5312 29.5312C19.6875 29.6875 20 29.6875 20.3125 29.6875C20.625 29.6875 20.7812 29.6875 20.9375 29.5312L30 25H34.375C38.75 25 42.1875 21.5625 42.1875 17.1875V12.5C42.1875 8.125 38.75 4.6875 34.375 4.6875ZM28.125 18.75H26.5625C25.625 18.75 25 18.125 25 17.1875C25 16.25 25.625 15.625 26.5625 15.625H28.125C29.0625 15.625 29.6875 16.25 29.6875 17.1875C29.6875 18.125 29.0625 18.75 28.125 18.75ZM31.25 14.0625H26.5625C25.625 14.0625 25 13.4375 25 12.5C25 11.5625 25.625 10.9375 26.5625 10.9375H31.25C32.1875 10.9375 32.8125 11.5625 32.8125 12.5C32.8125 13.4375 32.1875 14.0625 31.25 14.0625Z" fill="#68C4A1"/>
<path d="M42.3438 40.1563C41.7188 40 41.25 39.5312 41.0938 38.9062C41.7188 38.125 42.1875 37.0312 42.1875 35.9375V32.8125C42.1875 30.1562 40.1563 28.125 37.5 28.125C34.8438 28.125 32.8125 30.1562 32.8125 32.8125V35.9375C32.8125 37.0312 33.2813 38.125 33.9063 38.9062C33.75 39.5312 33.2813 40 32.6563 40.1563C30.3125 40.7813 28.5938 42.6562 28.2813 45C28.125 45.4687 28.2813 45.9375 28.5938 46.25C28.9063 46.5625 29.375 46.875 29.8438 46.875H45.4688C45.9375 46.875 46.4063 46.7188 46.7188 46.25C47.0313 45.9375 47.1875 45.4687 47.0313 45C46.4063 42.6562 44.5313 40.7813 42.3438 40.1563Z" fill="#68C4A1"/>
<path d="M17.3438 40.1563C16.7188 40 16.25 39.5312 16.0938 38.9062C16.7188 38.125 17.1875 37.0312 17.1875 35.9375V32.8125C17.1875 30.1562 15.1563 28.125 12.5 28.125C9.84377 28.125 7.81252 30.1562 7.81252 32.8125V35.9375C7.81252 37.0312 8.28127 38.125 8.90627 38.9062C8.75002 39.5312 8.28127 40 7.65627 40.1563C5.31252 40.7813 3.59377 42.6562 3.28127 45C3.12502 45.4687 3.28127 45.9375 3.59377 46.25C3.75002 46.7188 4.21877 46.875 4.68752 46.875H20.3125C20.7813 46.875 21.25 46.7188 21.5625 46.25C21.875 45.9375 22.0313 45.4687 21.875 45C21.4063 42.6562 19.5313 40.7813 17.3438 40.1563Z" fill="#68C4A1"/>
</svg>
