<svg width="50" height="50" viewBox="0 0 50 50" fill="none" xmlns="http://www.w3.org/2000/svg">
<path d="M10.1527 36.6342L8.08271 36.5095C7.56981 36.4779 7.07899 36.6533 6.69598 37.0009L5.14596 38.4083C4.76295 38.756 4.53551 39.2352 4.50523 39.7579L4.38316 41.8729C4.35299 42.3954 4.52369 42.8987 4.86403 43.2901L6.24129 44.8738C6.58152 45.2651 7.05038 45.4976 7.5619 45.5284L9.63184 45.6532C9.67032 45.6555 9.7088 45.6567 9.74708 45.6567C10.2168 45.6567 10.6645 45.4834 11.0185 45.1619L12.5685 43.7544C12.5686 43.7544 12.5686 43.7543 12.5687 43.7543C12.9516 43.4064 13.179 42.9271 13.2091 42.405L13.3313 40.2899C13.3615 39.7674 13.1907 39.2641 12.8504 38.8728L11.4731 37.289C11.1329 36.8975 10.664 36.6651 10.1527 36.6342ZM11.7888 40.1967L11.6667 42.3121C11.661 42.412 11.6157 42.5076 11.5422 42.5742L9.99249 43.9815C9.91915 44.0482 9.82032 44.0826 9.72296 44.077L7.65321 43.9522C7.5538 43.9462 7.46268 43.901 7.39657 43.8251L6.01931 42.2414C5.9531 42.1652 5.9199 42.0674 5.92585 41.9659L6.04783 39.8509C6.05369 39.7493 6.09783 39.6562 6.17224 39.5886L7.72226 38.1812C7.7911 38.1186 7.87812 38.085 7.96933 38.085C7.97675 38.085 7.98427 38.0852 7.99179 38.0856L10.0616 38.2105C10.1596 38.2163 10.253 38.2627 10.3183 38.3377L11.6956 39.9216C11.7606 39.9963 11.7947 40.0967 11.7888 40.1967Z" fill="#68C4A1"/>
<path d="M49.1025 42.5956L31.641 25.5869L38.0536 19.7642L42.5685 20.0363C43.5105 20.0936 44.4206 19.7713 45.1272 19.1297L47.9109 16.602C48.6174 15.9605 49.0372 15.0764 49.093 14.1121L49.2497 11.3976C49.2901 10.6988 48.9178 10.05 48.3017 9.7445C47.6856 9.43934 46.9563 9.54213 46.4445 10.0071L41.8933 14.1394C41.857 14.1726 41.8176 14.1781 41.7905 14.1759C41.7636 14.1743 41.7248 14.1645 41.6925 14.1274L38.8269 10.8318C38.7747 10.7719 38.7801 10.6799 38.8386 10.6266L43.2934 6.5816C43.8054 6.11677 43.9913 5.38899 43.767 4.72777C43.5426 4.06645 42.9557 3.6125 42.272 3.57139L39.7974 3.4222C38.8544 3.36542 37.9454 3.68724 37.2388 4.3288L34.4549 6.85653C33.7485 7.49819 33.3287 8.38245 33.2729 9.34923L33.0198 14.0069L26.1533 20.2417L17.0196 11.3449L21.2127 4.95001C21.8782 3.93513 21.7476 2.57147 20.9022 1.70757L19.965 0.749973C19.1194 -0.114124 17.785 -0.247346 16.7918 0.432735L10.345 4.84672C9.8335 4.38489 9.1791 4.13052 8.49511 4.13052C7.74842 4.13052 7.04626 4.4277 6.51833 4.96717L5.93121 5.56722C4.89468 6.62631 4.8356 8.30411 5.77731 9.43525L4.09711 11.1522C3.79545 11.4605 3.79545 11.9604 4.09711 12.2685C4.39897 12.5768 4.88804 12.5768 5.1898 12.2685L7.39969 10.0104L10.8663 6.46794C10.8666 6.46764 10.8669 6.46724 10.8673 6.46684L11.0296 6.30099C11.0739 6.25588 11.1226 6.21477 11.1747 6.17914L17.6519 1.7443C18.0342 1.48264 18.5472 1.53424 18.8725 1.86634L19.8097 2.82405C20.1349 3.15635 20.1852 3.68086 19.9292 4.07114L15.5892 10.6898C15.5543 10.7431 15.5141 10.793 15.4697 10.8384L13.3924 12.9611L11.7076 14.6827C11.7078 14.6826 11.7075 14.6828 11.7076 14.6827L6.26852 20.2407C5.89205 20.6254 5.27925 20.6256 4.90259 20.2408L4.0228 19.3419L10.8129 12.4036C11.1146 12.0952 11.1146 11.5953 10.8129 11.2871C10.5112 10.9787 10.0221 10.9786 9.72022 11.2871L2.93021 18.2254L1.82814 17.0993C1.64582 16.9128 1.54533 16.6651 1.54533 16.4015C1.54533 16.138 1.64582 15.8902 1.82834 15.7038L3.03323 14.4724C3.3349 14.1642 3.3349 13.6642 3.03314 13.3561C2.73157 13.0476 2.24231 13.0478 1.94065 13.3561L0.735555 14.5871C0.261233 15.0717 0 15.7161 0 16.4014C0 17.0867 0.261233 17.731 0.735457 18.2156L2.38333 19.8995C2.38313 19.8993 2.38352 19.8997 2.38333 19.8995C2.38352 19.8997 2.38411 19.9003 2.3843 19.9005L3.8099 21.3573C4.29936 21.8573 4.94224 22.1076 5.58521 22.1076C6.22819 22.1076 6.87117 21.8575 7.36072 21.3573L12.2405 16.3709L20.5755 25.3059L17.7592 27.8632C17.4401 28.1528 17.4114 28.6518 17.6948 28.9777C17.9782 29.3035 18.4666 29.3329 18.7854 29.0433L34.2863 14.9685C34.4402 14.8288 34.5331 14.6321 34.5445 14.4222L34.8153 9.43914C34.8467 8.89608 35.0831 8.39791 35.481 8.03657L38.2648 5.50884C38.6629 5.1474 39.1752 4.96657 39.7062 4.99811L42.1809 5.1473C42.2043 5.14879 42.2757 5.15308 42.307 5.24479C42.3381 5.3366 42.2846 5.3851 42.267 5.40107L37.8121 9.44613C37.1167 10.0777 37.0538 11.1696 37.6717 11.8804L40.5373 15.176C40.8367 15.5203 41.2494 15.7248 41.6993 15.752C42.15 15.7798 42.5828 15.6255 42.9195 15.3197L47.4706 11.1873C47.4882 11.1713 47.5416 11.1227 47.6273 11.1652C47.7127 11.2076 47.7085 11.2806 47.7071 11.3046L47.5504 14.0191C47.519 14.5624 47.2826 15.0605 46.8847 15.4218L44.1008 17.9494C43.7028 18.3108 43.1917 18.4927 42.6593 18.4602L37.825 18.1687C37.6205 18.1567 37.4194 18.2277 37.2664 18.3666L15.5909 38.0483C15.3678 38.2507 15.279 38.5663 15.3621 38.8589C15.4099 39.0271 15.4291 39.2006 15.419 39.375L15.1771 43.5635C15.1535 43.9711 14.9761 44.3449 14.6776 44.6159L11.608 47.4031C11.3095 47.6743 10.9261 47.8101 10.5267 47.7862L6.4277 47.5391C6.02897 47.515 5.66315 47.3338 5.39781 47.0286L2.67024 43.892C2.40501 43.5869 2.2718 43.1945 2.29534 42.7872L2.53723 38.5984C2.56077 38.1909 2.73811 37.8172 3.03675 37.5462L6.10641 34.7589C6.40495 34.4878 6.78913 34.3518 7.18767 34.3759L11.2868 34.6231C11.4671 34.634 11.6433 34.6783 11.8103 34.7548C12.0876 34.8817 12.4121 34.8309 12.6393 34.6245L16.604 31.0245C16.923 30.7349 16.9517 30.2358 16.6683 29.91C16.3847 29.5841 15.8964 29.5546 15.5777 29.8444L11.95 33.1383C11.7629 33.0894 11.5716 33.0589 11.3776 33.0472L7.2784 32.8C6.46833 32.7512 5.68678 33.0278 5.07974 33.5789L2.01018 36.3661C1.40294 36.9173 1.0423 37.6772 0.994542 38.5056L0.752645 42.6943C0.70489 43.5227 0.975596 44.3207 1.51505 44.9411L4.24262 48.0777C4.78208 48.6981 5.52574 49.0666 6.33649 49.1154L10.4356 49.3625C10.497 49.3662 10.5579 49.3681 10.6188 49.3681C11.3632 49.3681 12.073 49.0932 12.6341 48.5837L15.7037 45.7966C16.3107 45.2454 16.6715 44.4857 16.7193 43.6569L16.9612 39.4682C16.9717 39.2878 16.9667 39.1077 16.9466 38.9295L25.7916 30.8982L42.7543 49.0822C43.2819 49.6655 44.0297 50 44.8074 50C45.5537 50 46.2557 49.7029 46.7837 49.1634L49.1813 46.7132C49.725 46.1576 50.0157 45.4189 49.9994 44.6333C49.9837 43.8501 49.6652 43.1267 49.1025 42.5956ZM6.87742 8.3109C6.53884 7.81044 6.5904 7.12627 7.02371 6.68359L7.61092 6.08344C7.84696 5.84215 8.16102 5.70932 8.49491 5.70932C8.74999 5.70932 8.99589 5.78826 9.20322 5.93415L6.87742 8.3109ZM21.7313 24.2565L13.3335 15.2541L15.9981 12.5313L24.9941 21.294L21.7313 24.2565ZM48.0892 45.5965L45.6916 48.0468C45.4554 48.2881 45.1416 48.421 44.808 48.4209C44.4538 48.4209 44.1268 48.2742 43.8873 48.0079C43.8842 48.0043 43.8808 48.0008 43.8776 47.9974L26.9477 29.8487L30.482 26.6394L48.0409 43.743C48.0443 43.7463 48.0478 43.7495 48.0512 43.7528C48.3045 43.9906 48.448 44.3151 48.4552 44.6664C48.4624 45.0176 48.3324 45.3479 48.0892 45.5965Z" fill="#68C4A1"/>
</svg>
