<svg width="61" height="61" viewBox="0 0 61 61" fill="none" xmlns="http://www.w3.org/2000/svg">
<g clip-path="url(#clip0_13_394)">
<path d="M40.4306 3.4022L49.8016 8.59585C49.9862 8.69616 50.1496 8.82494 50.2931 8.97742L51.5742 10.3327C52.9369 9.72157 54.6898 10.028 56.8159 11.2555L57.1151 11.4283C59.8449 13.0043 60.7831 16.5075 59.2074 19.2368L55.5231 25.6181C53.9471 28.3479 50.4439 29.2861 47.7146 27.7104L47.4154 27.5376C45.108 26.2054 43.9594 24.7115 43.9783 23.0774L42.9082 22.591L33.5883 38.7334C34.0773 39.981 34.0188 41.4319 33.298 42.6804L25.0641 56.9419C23.8071 59.1191 21.0142 59.8675 18.8377 58.6108L13.1258 55.313C10.9492 54.0564 10.2012 51.263 11.4578 49.0864L19.6921 34.8242C20.3881 33.6186 21.5562 32.8529 22.8287 32.6215L32.9249 15.1344C32.8382 14.931 32.6699 14.6438 32.4922 14.3948C28.0873 11.7015 24.3104 12.3401 24.1721 12.3643C23.3914 12.5174 22.5918 12.2005 22.1282 11.5511C21.6654 10.903 21.6235 10.0434 22.0215 9.35402C25.8208 2.77476 34.4304 -0.00180045 40.4306 3.4022ZM14.9773 51.1184C14.8415 51.3536 14.9216 51.6565 15.1575 51.7926L20.8694 55.0904C21.1046 55.2262 21.4072 55.1451 21.5434 54.9093L29.7777 40.6471C29.9135 40.4119 29.8333 40.109 29.5975 39.9729L23.8856 36.6751C23.6503 36.5393 23.3474 36.6209 23.2116 36.8562L14.9773 51.1184ZM34.9722 11.152C35.1429 11.2615 35.2963 11.3955 35.4269 11.5499C36.0207 12.2517 37.8639 14.7076 36.6334 16.839L26.9409 33.6268L30.6171 35.7492L40.3095 18.9614C40.8325 18.0556 41.9577 17.6945 42.9102 18.1271L47.2326 20.0908C47.7541 20.3285 48.1519 20.7748 48.3273 21.3204C48.5028 21.866 48.4389 22.4604 48.152 22.9573C48.1283 22.9984 48.1111 23.0323 48.0982 23.06C48.2184 23.2014 48.5493 23.498 49.4481 24.017L49.7473 24.1897C50.5364 24.6453 51.5482 24.3737 52.0034 23.5852L55.6876 17.2039C56.1432 16.4148 55.8716 15.403 55.0831 14.9478L54.7839 14.775C53.8851 14.2561 53.463 14.1188 53.2795 14.0856C53.262 14.1106 53.2409 14.1431 53.2175 14.1835C52.8968 14.7391 52.3324 15.111 51.6948 15.1857C51.0572 15.2603 50.4206 15.0297 49.9809 14.5638L47.5556 11.9996L38.4416 6.94885C35.2215 5.1218 31.0504 6.16406 28.125 8.46841C30.0828 8.79929 32.4761 9.55055 34.9722 11.152Z" fill="#68C4A1"/>
</g>
<defs>
<clipPath id="clip0_13_394">
<rect width="60" height="60" fill="white" transform="matrix(-1 8.74228e-08 8.74228e-08 1 60.9808 0.980713)"/>
</clipPath>
</defs>
</svg>
