<svg width="60" height="59" viewBox="0 0 60 59" fill="none" xmlns="http://www.w3.org/2000/svg">
<path d="M12.1831 43.0204L9.69921 42.8739C9.08374 42.8368 8.49475 43.0428 8.03514 43.4509L6.17513 45.1038C5.71552 45.5121 5.44259 46.0748 5.40626 46.6886L5.25977 49.1723C5.22356 49.7859 5.42841 50.3769 5.83681 50.8365L7.48951 52.6963C7.89779 53.1558 8.46041 53.4288 9.07424 53.4651L11.5582 53.6117C11.6043 53.6144 11.6505 53.6158 11.6964 53.6158C12.2601 53.6158 12.7973 53.4122 13.2221 53.0346L15.0821 51.3818C15.0822 51.3818 15.0822 51.3817 15.0824 51.3817C15.5419 50.9732 15.8148 50.4103 15.8509 49.7972L15.9975 47.3134C16.0337 46.6998 15.8287 46.1087 15.4204 45.6492L13.7676 43.7893C13.3595 43.3295 12.7967 43.0566 12.1831 43.0204ZM14.1465 47.2039L14 49.6881C13.9931 49.8054 13.9387 49.9176 13.8506 49.9958L11.9909 51.6485C11.9029 51.7268 11.7843 51.7672 11.6675 51.7607L9.18381 51.6141C9.06452 51.607 8.95518 51.5539 8.87584 51.4648L7.22314 49.605C7.14369 49.5156 7.10384 49.4007 7.11099 49.2815L7.25736 46.7978C7.26439 46.6785 7.31736 46.5692 7.40666 46.4898L9.26667 44.837C9.34928 44.7636 9.4537 44.7241 9.56315 44.7241C9.57206 44.7241 9.58108 44.7243 9.59011 44.7248L12.0739 44.8714C12.1914 44.8783 12.3036 44.9328 12.3819 45.0208L14.0347 46.8808C14.1126 46.9686 14.1535 47.0865 14.1465 47.2039Z" fill="#68C4A1"/>
<path d="M58.9227 50.0211L37.969 30.0474L45.6641 23.2096L51.082 23.5292C52.2124 23.5965 53.3045 23.2179 54.1524 22.4645L57.4929 19.4962C58.3406 18.7429 58.8444 17.7046 58.9113 16.5722L59.0994 13.3845C59.1478 12.5639 58.7011 11.8019 57.9617 11.4432C57.2224 11.0849 56.3474 11.2056 55.7332 11.7516L50.2717 16.6043C50.2281 16.6432 50.1809 16.6497 50.1483 16.6471C50.1161 16.6452 50.0696 16.6337 50.0308 16.5901L46.592 12.7201C46.5294 12.6497 46.5359 12.5416 46.6061 12.4791L51.9519 7.72896C52.5663 7.18309 52.7893 6.32844 52.5201 5.55195C52.2509 4.77534 51.5466 4.24226 50.7262 4.19397L47.7566 4.01878C46.6251 3.9521 45.5343 4.33003 44.6863 5.08343L41.3457 8.05181C40.498 8.80533 39.9942 9.84373 39.9273 10.9791L39.6236 16.4487L31.3838 23.7704L20.4234 13.3226L25.4551 5.81293C26.2537 4.62113 26.097 3.01975 25.0825 2.00525L23.9578 0.880714C22.9432 -0.134019 21.3418 -0.290465 20.15 0.508173L12.414 5.69164C11.8001 5.14929 11.0149 4.85058 10.1941 4.85058C9.29806 4.85058 8.45548 5.19957 7.82196 5.83309L7.11742 6.53774C5.87359 7.78146 5.80269 9.75174 6.93274 11.0801L4.91651 13.0963C4.55452 13.4584 4.55452 14.0454 4.91651 14.4073C5.27874 14.7693 5.86562 14.7693 6.22773 14.4073L8.87958 11.7554L13.0395 7.59548C13.0399 7.59513 13.0402 7.59466 13.0407 7.59419L13.2355 7.39942C13.2887 7.34645 13.347 7.29817 13.4096 7.25634L21.1822 2.04838C21.6409 1.74111 22.2565 1.8017 22.6469 2.1917L23.7715 3.31635C24.1617 3.70659 24.2221 4.32253 23.9149 4.78085L18.707 12.5534C18.665 12.6159 18.6169 12.6745 18.5635 12.7279L16.0708 15.2206L14.0491 17.2423C14.0493 17.2422 14.049 17.2424 14.0491 17.2423L7.52219 23.7692C7.07043 24.221 6.33508 24.2212 5.88308 23.7693L4.82733 22.7137L12.9754 14.5658C13.3374 14.2037 13.3374 13.6167 12.9754 13.2547C12.6134 12.8926 12.0264 12.8925 11.6642 13.2547L3.51623 21.4026L2.19376 20.0801C1.97497 19.8612 1.85439 19.5702 1.85439 19.2607C1.85439 18.9512 1.97497 18.6603 2.194 18.4414L3.63986 16.9954C4.00186 16.6334 4.00186 16.0463 3.63975 15.6844C3.27787 15.3222 2.69076 15.3224 2.32876 15.6844L0.882661 17.13C0.313478 17.6991 0 18.4559 0 19.2606C0 20.0654 0.313478 20.822 0.882544 21.3911L2.85998 23.3685C2.85974 23.3683 2.86021 23.3688 2.85998 23.3685C2.86021 23.3688 2.86092 23.3695 2.86115 23.3697L4.57186 25.0804C5.15921 25.6677 5.93066 25.9616 6.70223 25.9616C7.47379 25.9616 8.24536 25.6679 8.83283 25.0804L14.6885 19.2248L24.6905 29.7174L21.3109 32.7205C20.9281 33.0606 20.8936 33.6466 21.2337 34.0293C21.5738 34.4119 22.1598 34.4464 22.5424 34.1064L41.1434 17.5779C41.3281 17.4139 41.4395 17.1829 41.4532 16.9364L41.7782 11.0846C41.8158 10.4469 42.0995 9.8619 42.577 9.43756L45.9175 6.46918C46.3953 6.04473 47.01 5.83238 47.6472 5.86941L50.6169 6.04461C50.645 6.04637 50.7306 6.05141 50.7681 6.1591C50.8055 6.26692 50.7413 6.32387 50.7202 6.34262L45.3743 11.0928C44.5398 11.8345 44.4644 13.1168 45.2058 13.9515L48.6446 17.8216C49.0038 18.2259 49.499 18.4661 50.0389 18.498C50.5798 18.5307 51.0991 18.3495 51.5032 17.9903L56.9645 13.1375C56.9856 13.1188 57.0497 13.0617 57.1524 13.1116C57.255 13.1613 57.2499 13.2471 57.2483 13.2754L57.0602 16.463C57.0225 17.101 56.7389 17.686 56.2613 18.1102L52.9208 21.0784C52.4431 21.5029 51.8298 21.7165 51.191 21.6783L45.3898 21.336C45.1444 21.322 44.9031 21.4053 44.7195 21.5684L18.709 44.6812C18.4413 44.9189 18.3347 45.2894 18.4344 45.633C18.4918 45.8306 18.5148 46.0344 18.5027 46.2391L18.2125 51.1578C18.1841 51.6364 17.9713 52.0754 17.613 52.3937L13.9296 55.6668C13.5713 55.9852 13.1112 56.1447 12.6319 56.1166L7.71321 55.8265C7.23473 55.7981 6.79574 55.5853 6.47734 55.227L3.20428 51.5436C2.88599 51.1853 2.72615 50.7245 2.75439 50.2461L3.04467 45.3271C3.07291 44.8487 3.28572 44.4098 3.64408 44.0915L7.32766 40.8183C7.6859 40.4999 8.14692 40.3402 8.62517 40.3686L13.5441 40.6588C13.7605 40.6716 13.9719 40.7236 14.1723 40.8135C14.5051 40.9626 14.8945 40.9028 15.1671 40.6605L19.9247 36.4329C20.3075 36.0928 20.342 35.5068 20.0019 35.1241C19.6616 34.7414 19.0755 34.7067 18.6932 35.047L14.34 38.9152C14.1154 38.8578 13.8859 38.8219 13.653 38.8082L8.73404 38.5179C7.76196 38.4606 6.8241 38.7855 6.09566 39.4326L2.4122 42.7056C1.68353 43.353 1.25075 44.2454 1.19344 45.2182L0.903169 50.1371C0.845864 51.1099 1.17071 52.0469 1.81806 52.7755L5.09112 56.459C5.73847 57.1875 6.63086 57.6203 7.60376 57.6776L12.5226 57.9678C12.5963 57.9721 12.6694 57.9743 12.7425 57.9743C13.6358 57.9743 14.4875 57.6515 15.1609 57.0531L18.8443 53.7802C19.5728 53.1329 20.0057 52.2408 20.0631 51.2675L20.3534 46.3485C20.3659 46.1367 20.3599 45.9253 20.3358 45.716L30.9498 36.2845L51.305 57.6386C51.938 58.3235 52.8353 58.7164 53.7686 58.7164C54.6642 58.7164 55.5065 58.3675 56.1402 57.734L59.0173 54.8565C59.6698 54.2041 60.0185 53.3366 59.9989 52.4141C59.9802 51.4944 59.5979 50.6449 58.9227 50.0211ZM8.25286 9.75971C7.84657 9.17201 7.90844 8.36857 8.42841 7.84872L9.13306 7.14395C9.41631 6.86059 9.79318 6.70461 10.1938 6.70461C10.4999 6.70461 10.795 6.79731 11.0438 6.96864L8.25286 9.75971ZM26.0774 28.4851L16.0002 17.9133L19.1977 14.7158L29.9928 25.0061L26.0774 28.4851ZM57.7067 53.5452L54.8297 56.4226C54.5462 56.706 54.1697 56.8621 53.7693 56.862C53.3443 56.862 52.952 56.6897 52.6645 56.3769C52.6607 56.3727 52.6568 56.3686 52.6529 56.3646L32.3371 35.0521L36.5782 31.2834L57.6489 51.3685C57.653 51.3725 57.6571 51.3763 57.6612 51.3801C57.9651 51.6594 58.1373 52.0404 58.146 52.453C58.1546 52.8654 57.9987 53.2533 57.7067 53.5452Z" fill="#68C4A1"/>
</svg>
