<svg width="30" height="30" viewBox="0 0 30 30" fill="none" xmlns="http://www.w3.org/2000/svg">
<path d="M14.9992 0C6.71438 0 0 6.71588 0 14.9992C0 21.3533 3.95326 26.7854 9.53406 28.9715C9.40193 27.7854 9.28482 25.9597 9.58511 24.6654C9.85837 23.4943 11.3448 17.2093 11.3448 17.2093C11.3448 17.2093 10.8959 16.31 10.8959 14.9812C10.8959 12.8973 12.1045 11.3403 13.6104 11.3403C14.8911 11.3403 15.5082 12.3012 15.5082 13.4528C15.5082 14.741 14.6885 16.6643 14.2666 18.448C13.9137 19.9404 15.0158 21.1581 16.4872 21.1581C19.1522 21.1581 21.2031 18.3474 21.2031 14.2891C21.2031 10.6977 18.6222 8.18728 14.9377 8.18728C10.6691 8.18728 8.16325 11.3883 8.16325 14.696C8.16325 15.9842 8.66023 17.367 9.28032 18.1192C9.33301 18.1759 9.37022 18.2451 9.38837 18.3203C9.40651 18.3956 9.40498 18.4742 9.38391 18.5486C9.26981 19.0216 9.01607 20.041 8.96802 20.2497C8.90196 20.5245 8.75031 20.5831 8.46504 20.4509C6.59276 19.5786 5.42165 16.84 5.42165 14.6389C5.42165 9.90791 8.85842 5.56278 15.3326 5.56278C20.5365 5.56278 24.5799 9.26981 24.5799 14.226C24.5799 19.3969 21.3203 23.5544 16.7965 23.5544C15.2755 23.5544 13.8477 22.7661 13.3582 21.8337L12.4228 25.3981C12.085 26.7014 11.1706 28.3349 10.5595 29.3319C11.9981 29.776 13.4952 30.0012 15.0008 30C23.2841 30 30 23.2841 30 15.0008C30 6.71738 23.2826 0 14.9992 0Z" fill="#777777"/>
</svg>
