<svg width="60" height="60" viewBox="0 0 60 60" fill="none" xmlns="http://www.w3.org/2000/svg">
<path d="M59 37.5H0.999961C0.446953 37.5 0 37.948 0 38.5V50.5C0 51.0519 0.446953 51.4999 0.999961 51.4999H58.9999C59.5529 51.4999 59.9999 51.0519 59.9999 50.5V38.5C60 37.948 59.553 37.5 59 37.5Z" fill="#68C4A1"/>
<path d="M59 25.5H0.999961C0.446953 25.5 0 25.948 0 26.5V34.5C0 35.052 0.446953 35.5 0.999961 35.5H58.9999C59.5529 35.5 59.9999 35.052 59.9999 34.5V26.5C60 25.948 59.553 25.5 59 25.5Z" fill="#68C4A1"/>
<path d="M59 15.5H0.999961C0.446953 15.5 0 15.948 0 16.5V22.5C0 23.0519 0.446953 23.4999 0.999961 23.4999H58.9999C59.5529 23.4999 59.9999 23.0519 59.9999 22.5V16.5C60 15.948 59.553 15.5 59 15.5Z" fill="#68C4A1"/>
<path d="M59 8.5H0.999961C0.446953 8.5 0 8.94801 0 9.50008V12.5001C0 13.052 0.446953 13.5 0.999961 13.5H58.9999C59.5529 13.5 59.9999 13.052 59.9999 12.5001V9.50008C60 8.94801 59.553 8.5 59 8.5Z" fill="#68C4A1"/>
</svg>
