<svg width="25" height="25" viewBox="0 0 25 25" fill="none" xmlns="http://www.w3.org/2000/svg">
<path d="M0.481707 18.7502C1.53783 18.6212 2.60878 18.7601 3.66491 18.5866C4.1954 18.5023 4.68133 18.3239 5.16228 18.1354C3.97234 17.3719 2.90129 16.4992 1.90477 15.4531C1.54779 15.0812 1.80557 14.4564 2.32622 14.4416C2.75265 14.4614 3.16913 14.4268 3.57566 14.3424C2.53933 13.0285 1.73612 11.6154 1.1114 10.0288C0.942863 9.60236 1.43864 9.17106 1.84029 9.29989C2.07331 9.39412 2.31129 9.45859 2.55426 9.50813C1.81552 7.73307 1.6618 5.94318 2.07331 3.97967C2.16753 3.52847 2.7625 3.41943 3.06496 3.71691C5.435 6.04714 8.42975 7.16774 11.6327 7.70321C11.3501 5.51167 12.9071 3.18133 14.9498 2.41771C16.6455 1.78802 18.9213 2.21943 20.0617 3.64735C20.8254 3.1664 21.8814 3.00771 22.7293 2.85897C23.1755 2.78454 23.6069 3.22092 23.3441 3.66218C23.0367 4.17785 22.7442 4.72815 22.4219 5.25377C23.0764 5.06035 23.7508 4.94136 24.425 4.85709C24.911 4.79262 25.2035 5.54131 24.8317 5.83879C24.0433 6.46849 23.2599 7.18743 22.4219 7.7626C22.3972 13.3307 20.7708 18.0014 15.7978 21.1697C11.6525 23.8175 3.94746 23.3713 0.342916 19.7666H0.33794C0.179246 19.7269 0.0949762 19.6079 0.0652277 19.4791C-0.0735627 19.2708 0.0255269 19.0131 0.208994 18.9139C0.278443 18.8295 0.367689 18.765 0.481707 18.7502Z" fill="#3FA9F5"/>
</svg>
