<svg width="30" height="30" viewBox="0 0 30 30" fill="none" xmlns="http://www.w3.org/2000/svg">
<g clip-path="url(#clip0_44_110)">
<path d="M29.3199 5.55385C28.8486 5.76288 28.3641 5.9393 27.869 6.08253C28.4552 5.41963 28.9021 4.63963 29.1749 3.78608C29.236 3.59475 29.1726 3.38534 29.0154 3.26021C28.8583 3.13498 28.6401 3.11998 28.4672 3.22246C27.4157 3.84608 26.2813 4.29424 25.0919 4.5563C23.8937 3.38553 22.2663 2.71924 20.584 2.71924C17.0329 2.71924 14.1438 5.60824 14.1438 9.15927C14.1438 9.43895 14.1615 9.71708 14.1965 9.99134C9.78993 9.60443 5.69319 7.43853 2.87997 3.98766C2.77971 3.86466 2.62526 3.79837 2.46713 3.81105C2.3089 3.82343 2.16674 3.91266 2.08681 4.04979C1.51623 5.02885 1.21458 6.14863 1.21458 7.28795C1.21458 8.83972 1.76861 10.312 2.74729 11.4625C2.44971 11.3594 2.16094 11.2306 1.88532 11.0776C1.73736 10.9953 1.55678 10.9965 1.40978 11.0808C1.26268 11.1651 1.17045 11.3201 1.16658 11.4896C1.1659 11.5181 1.1659 11.5467 1.1659 11.5756C1.1659 13.8919 2.41255 15.9773 4.31852 17.1139C4.15477 17.0976 3.99113 17.0739 3.82855 17.0428C3.66094 17.0108 3.48858 17.0695 3.37555 17.1973C3.26232 17.3251 3.22487 17.5031 3.27703 17.6657C3.98252 19.8683 5.79887 21.4884 7.99468 21.9823C6.17348 23.123 4.09081 23.7205 1.90449 23.7205C1.44829 23.7205 0.989486 23.6937 0.540454 23.6406C0.317389 23.614 0.104099 23.7458 0.0281312 23.9579C-0.0478365 24.1701 0.0326796 24.4067 0.222454 24.5284C3.03113 26.3292 6.27877 27.2811 9.61409 27.2811C16.1709 27.2811 20.2727 24.1892 22.559 21.5953C25.41 18.361 27.0451 14.08 27.0451 9.85014C27.0451 9.67343 27.0423 9.49498 27.0369 9.31711C28.1617 8.46966 29.1301 7.44405 29.9182 6.26524C30.0379 6.08621 30.0249 5.84959 29.8862 5.68479C29.7478 5.51988 29.517 5.46656 29.3199 5.55385Z" fill="#777777"/>
</g>
<defs>
<clipPath id="clip0_44_110">
<rect width="30" height="30" fill="white"/>
</clipPath>
</defs>
</svg>
