<svg width="55" height="55" viewBox="0 0 55 55" fill="none" xmlns="http://www.w3.org/2000/svg">
<g clip-path="url(#clip0_10_209)">
<path d="M33.6203 8.93492L39.8676 12.3974C39.9907 12.4642 40.0997 12.5501 40.1953 12.6517L41.0494 13.5552C41.9579 13.1478 43.1264 13.3521 44.5438 14.1705L44.7433 14.2856C46.5632 15.3363 47.1887 17.6718 46.1382 19.4913L43.682 23.7455C42.6313 25.5654 40.2958 26.1908 38.4763 25.1404L38.2769 25.0252C36.7386 24.1371 35.9728 23.1411 35.9854 22.0517L35.272 21.7274L29.0588 32.4891C29.3848 33.3208 29.3458 34.2881 28.8652 35.1204L23.376 44.6281C22.538 46.0795 20.6761 46.5784 19.225 45.7407L15.4171 43.5421C13.966 42.7044 13.4674 40.8421 14.3051 39.391L19.7946 29.8829C20.2587 29.0792 21.0374 28.5687 21.8857 28.4144L28.6165 16.7564C28.5587 16.6208 28.4466 16.4293 28.328 16.2634C25.3915 14.4678 22.8735 14.8935 22.7813 14.9096C22.2608 15.0117 21.7278 14.8005 21.4187 14.3675C21.1102 13.9354 21.0823 13.3624 21.3476 12.9028C23.8805 8.51663 29.6202 6.66559 33.6203 8.93492ZM16.6515 40.7457C16.5609 40.9025 16.6143 41.1044 16.7716 41.1952L20.5795 43.3937C20.7363 43.4843 20.9381 43.4302 21.0289 43.273L26.5184 33.7649C26.6089 33.608 26.5555 33.4061 26.3982 33.3154L22.5903 31.1169C22.4335 31.0263 22.2315 31.0807 22.141 31.2376L16.6515 40.7457ZM29.9814 14.1015C30.0952 14.1745 30.1975 14.2638 30.2845 14.3667C30.6804 14.8346 31.9092 16.4718 31.0888 17.8928L24.6272 29.0846L27.078 30.4996L33.5396 19.3077C33.8882 18.7038 34.6384 18.4631 35.2734 18.7516L38.155 20.0606C38.5026 20.2191 38.7678 20.5167 38.8848 20.8804C39.0018 21.2441 38.9592 21.6404 38.7679 21.9717C38.7521 21.999 38.7406 22.0216 38.732 22.0401C38.8122 22.1344 39.0328 22.3321 39.632 22.6781L39.8314 22.7933C40.3575 23.097 41.032 22.9159 41.3355 22.3902L43.7917 18.136C44.0954 17.61 43.9143 16.9354 43.3887 16.632L43.1892 16.5168C42.59 16.1708 42.3086 16.0793 42.1863 16.0572C42.1746 16.0739 42.1605 16.0955 42.1449 16.1225C41.9311 16.4929 41.5548 16.7408 41.1298 16.7906C40.7047 16.8403 40.2803 16.6866 39.9872 16.376L38.3703 14.6665L32.2943 11.2994C30.1476 10.0813 27.3669 10.7762 25.4166 12.3124C26.7218 12.533 28.3173 13.0338 29.9814 14.1015Z" fill="white"/>
</g>
<defs>
<clipPath id="clip0_10_209">
<rect width="40" height="40" fill="white" transform="matrix(-0.866025 -0.5 -0.5 0.866025 54.641 20)"/>
</clipPath>
</defs>
</svg>
