<svg width="43" height="30" viewBox="0 0 43 30" fill="none" xmlns="http://www.w3.org/2000/svg">
<path d="M40.9666 2.57529C39.4278 0.746129 36.5869 0 31.1613 0H11.4664C5.91664 0 3.02756 0.794258 1.4946 2.74167C0 4.64041 0 7.43805 0 11.3101V18.6901C0 26.1914 1.77333 30 11.4664 30H31.1614C35.8664 30 38.4736 29.3416 40.1603 27.7274C41.8901 26.072 42.6281 23.3693 42.6281 18.6901V11.3101C42.6281 7.2267 42.5124 4.41256 40.9666 2.57529ZM27.3674 16.0189L18.424 20.6931C18.2241 20.7976 18.0054 20.8494 17.7871 20.8494C17.5398 20.8494 17.2931 20.7828 17.0746 20.6506C16.6632 20.4013 16.412 19.9553 16.412 19.4743V10.1561C16.412 9.67589 16.6625 9.23036 17.0731 8.98091C17.4838 8.73147 17.9947 8.71442 18.4208 8.93581L27.3642 13.5798C27.8192 13.816 28.105 14.2858 28.1057 14.7983C28.1062 15.3112 27.8217 15.7816 27.3674 16.0189Z" fill="#777777"/>
</svg>
